<svg width="170" height="83" viewBox="0 0 170 83" fill="none" xmlns="http://www.w3.org/2000/svg">

<mask id="mask0_410_4348" style="mask-type:alpha" maskUnits="userSpaceOnUse" x="1" y="0" width="168" height="83">


<path d="M86.4719 0.0078125C127.684 0.465279 161.785 21.4127 168.9 48.9346C161.708 68.3064 126.923 83 85.093 83C43.265 83 8.47973 68.3081 1.28634 48.9375C8.47801 21.1082 43.2641 0.00141551 85.093 0.000976562C85.5535 0.000976562 86.0131 0.00426456 86.4719 0.0078125Z" fill="white"/>
</mask>


<g mask="url(#mask0_410_4348)">
<mask id="mask1_410_4348" style="mask-type:alpha" maskUnits="userSpaceOnUse" x="0" y="0" width="171" height="120">
<path d="M170.342 59.6197C170.342 92.5468 132.21 119.239 85.171 119.239C38.1324 119.239 0 92.5468 0 59.6197C0 26.6927 38.1324 0 85.171 0C132.21 0 170.342 26.6927 170.342 59.6197Z" fill="white"/>
</mask>

<g id="blanc" mask="url(#mask1_410_4348)">
<path d="M170.341 41.5C170.341 64.4198 132.208 83 85.1698 83C38.1311 83 -0.00125948 64.4198 -0.00125948 41.5C-0.00125948 18.5802 38.1311 0 85.1698 0C132.208 0 170.341 18.5802 170.341 41.5Z" fill="#FFF"/>
</g>

<circle id="pupil" cx="85.171" cy="24.0916" r="22.91" fill="black"/>
</g>
</svg>
