<?xml version="1.0" encoding="UTF-8" standalone="no"?><!DOCTYPE svg PUBLIC "-//W3C//DTD SVG 1.1//EN" "http://www.w3.org/Graphics/SVG/1.1/DTD/svg11.dtd"><svg width="100%" height="100%" viewBox="0 0 1227 419" version="1.1" xmlns="http://www.w3.org/2000/svg" xmlns:xlink="http://www.w3.org/1999/xlink" xml:space="preserve" xmlns:serif="http://www.serif.com/" style="fill-rule:evenodd;clip-rule:evenodd;stroke-linejoin:round;stroke-miterlimit:2;"><g><g><path d="M285.258,39.995l-30.689,0c0,31.503 -25.634,57.137 -57.137,57.137l0,30.689c48.426,0 87.825,-39.4 87.825,-87.825"/><path d="M257.718,137.844l-30.689,0c0,61.775 -50.262,112.033 -112.037,112.033l0,30.692c45.378,0 85.874,-21.288 112.037,-54.401l0,155.792l30.689,0l0,-177.5c15.372,13.204 35.33,21.209 57.137,21.209l0,-30.689c-31.506,0 -57.137,-25.634 -57.137,-57.137"/><path d="M212.774,137.844l-30.689,0c0,36.995 -30.101,67.093 -67.093,67.093c-36.995,0 -67.093,-30.097 -67.093,-67.093l-30.689,0c0,53.918 43.863,97.781 97.781,97.781c53.918,0 97.781,-43.863 97.781,-97.781"/></g><g><path d="M992.543,205.667c0,7.299 -5.916,13.211 -13.211,13.211c-7.299,0 -13.214,-5.912 -13.214,-13.211c0,-7.299 5.916,-13.211 13.214,-13.211c7.295,0 13.211,5.912 13.211,13.211"/><path d="M1048.055,228.418c0,7.299 -5.916,13.211 -13.211,13.211c-7.299,0 -13.214,-5.912 -13.214,-13.211c0,-7.299 5.916,-13.211 13.214,-13.211c7.295,0 13.211,5.912 13.211,13.211"/><path d="M1082.77,193.797c0,7.299 -5.916,13.211 -13.211,13.211c-7.299,0 -13.214,-5.912 -13.214,-13.211c0,-7.299 5.916,-13.211 13.214,-13.211c7.295,0 13.211,5.912 13.211,13.211"/><path d="M1134.913,202.205c0,7.299 -5.916,13.211 -13.211,13.211c-7.299,0 -13.214,-5.912 -13.214,-13.211c0,-7.299 5.916,-13.211 13.214,-13.211c7.295,0 13.211,5.912 13.211,13.211"/><path d="M1187.881,176.698c0,7.299 -5.916,13.211 -13.211,13.211c-7.299,0 -13.214,-5.912 -13.214,-13.211c0,-7.299 5.916,-13.211 13.214,-13.211c7.295,0 13.211,5.912 13.211,13.211"/></g><path d="M682.442,88.286c4.642,0 7.751,2.935 8.943,7.452c4.107,0.381 8.161,0.781 12.163,1.208c-1.684,-10.302 -8.447,-18.729 -21.105,-18.729c-10.105,0 -17.8,6.415 -20.649,15.275c4.054,0.246 8.076,0.515 12.058,0.804c1.566,-3.726 4.517,-6.011 8.591,-6.011"/><path d="M660.57,101.41c0,13.535 9.822,22.862 23.111,22.862c8.007,0 13.949,-3.135 18.075,-8.253l-7.18,-6.356c-3.467,3.22 -6.52,4.54 -10.732,4.54c-5.614,0 -9.573,-2.971 -10.81,-8.667l30.787,0c0.082,-1.156 0.164,-2.311 0.164,-3.303c0,-1.796 -0.158,-3.565 -0.437,-5.289c-4.002,-0.423 -8.056,-0.827 -12.163,-1.205c0.164,0.624 0.295,1.274 0.384,1.953l-18.903,0c0.213,-1.231 0.548,-2.367 0.982,-3.398c-3.982,-0.289 -8,-0.558 -12.058,-0.801c-0.781,2.429 -1.221,5.033 -1.221,7.751l0,0.164Z"/><path d="M446.169,65.505l-12.711,0l0,39.059c4.13,-0.788 8.371,-1.54 12.711,-2.255l0,-36.804Z"/><path d="M523.871,89.772l10.4,0l0,-10.732l-10.4,0l0,-11.306l-12.547,0l0,11.306l-5.282,0l0,10.732l5.282,0l0,4.859c4.14,-0.318 8.322,-0.617 12.547,-0.893l0,-3.966Z"/><path d="M563.244,88.286c3.079,0 5.479,1.297 7.098,3.486c4.176,-0.089 8.371,-0.158 12.59,-0.2c-2.912,-7.702 -9.323,-13.355 -19.687,-13.355c-9.799,0 -17.337,6.027 -20.387,14.474c4.278,-0.197 8.591,-0.368 12.934,-0.515c1.691,-2.456 4.222,-3.89 7.452,-3.89"/><path d="M616.495,91.719c1.129,-0.243 2.334,-0.378 3.624,-0.378l0.66,0l0,-13.125c-7.429,-0.332 -11.556,3.631 -14.113,9.74l0,-8.916l-12.547,0l0,12.475c0.23,0 0.456,-0.003 0.686,-0.003c7.285,0 14.52,0.072 21.69,0.207"/><path d="M654.623,91.339l0.66,0l0,-13.122c-7.429,-0.332 -11.556,3.631 -14.113,9.737l0,-8.913l-12.547,0l0,12.967c6.523,0.194 12.987,0.437 19.369,0.739c1.881,-0.939 4.107,-1.408 6.631,-1.408"/><path d="M722.23,99.016l0,-0.164c0,-6.027 4.622,-10.236 10.728,-10.236c6.109,0 10.814,4.209 10.814,10.236l0,0.164c0,1.162 -0.177,2.255 -0.506,3.263c4.402,0.726 8.703,1.487 12.885,2.285l0,-25.524l-12.544,0l0,5.778c-3.385,-3.713 -7.429,-6.602 -14.28,-6.602c-9.832,0 -19.018,6.983 -19.589,19.418c4.232,0.483 8.401,0.995 12.498,1.533c0,-0.049 -0.007,-0.098 -0.007,-0.151"/><path d="M475.129,89.859c0.831,-0.394 2.669,-0.781 3.572,-0.781c0.903,0 2.741,0.387 3.568,0.781c3.194,1.52 4.639,3.788 5.052,6.953c3.976,-0.417 8.01,-0.808 12.087,-1.179c-1.408,-6.434 -5.266,-11.868 -11.218,-14.891c-2.735,-1.389 -5.906,-2.531 -9.491,-2.531c-3.588,0 -6.759,1.142 -9.494,2.531c-7.419,3.769 -11.592,11.277 -11.799,19.812c4.097,-0.601 8.276,-1.172 12.527,-1.717c0.023,-4.281 1.353,-7.153 5.193,-8.979"/><path d="M446.169,123.282l0,-20.974c-4.34,0.719 -8.581,1.471 -12.711,2.255l0,18.719l12.711,0Z"/><path d="M524.201,124.025c4.209,0 7.262,-0.991 9.904,-2.557l0,-10.072c-1.815,0.991 -3.88,1.569 -6.191,1.569c-2.804,0 -4.044,-1.405 -4.044,-4.291l0,-14.937c-4.225,0.272 -8.404,0.571 -12.544,0.893l0,16.106c0,10.236 5.2,13.289 12.875,13.289"/><path d="M541.372,101.41c0,13.535 9.822,22.862 23.111,22.862c8.007,0 13.949,-3.135 18.075,-8.253l-7.18,-6.356c-3.467,3.22 -6.52,4.54 -10.732,4.54c-5.614,0 -9.573,-2.971 -10.81,-8.667l30.787,0c0.082,-1.156 0.164,-2.311 0.164,-3.303c0,-3.742 -0.617,-7.383 -1.855,-10.659c-4.218,0.043 -8.414,0.108 -12.59,0.197c1.159,1.566 1.917,3.585 2.229,5.922l-18.903,0c0.378,-2.154 1.093,-4.025 2.124,-5.518c-4.343,0.148 -8.657,0.318 -12.938,0.515c-0.959,2.653 -1.484,5.535 -1.484,8.555l0,0.164Z"/><path d="M606.665,123.282l0,-16.342c0,-8.929 3.667,-13.893 9.829,-15.223c-7.17,-0.135 -14.402,-0.204 -21.687,-0.204l-0.686,0l0,31.768l12.544,0Z"/><path d="M641.169,123.282l0,-16.342c0,-7.367 2.492,-12.035 6.825,-14.192c-6.385,-0.302 -12.849,-0.548 -19.369,-0.739l0,31.272l12.544,0Z"/><path d="M709.684,99.016c0,13.125 9.327,20.633 19.645,20.633c6.684,0 10.728,-2.721 14.445,-7.18l0,2.147c0,7.925 -4.044,12.051 -12.629,12.051c-5.86,0 -10.4,-1.487 -14.94,-4.044l-4.291,9.409c5.61,2.971 12.38,4.622 19.563,4.622c8.581,0 14.937,-1.815 19.064,-5.942c3.716,-3.716 5.614,-9.494 5.614,-17.419l0,-8.729c-4.186,-0.798 -8.486,-1.559 -12.885,-2.285c-1.366,4.225 -5.377,6.973 -10.308,6.973c-6.057,0 -10.643,-4.061 -10.722,-10.085c-4.097,-0.538 -8.266,-1.051 -12.498,-1.533c-0.02,0.404 -0.056,0.801 -0.056,1.218l0,0.164Z"/><path d="M487.468,98.945l0,24.323l12.544,0l0,-22.038c0,-1.927 -0.21,-3.798 -0.604,-5.597c-4.077,0.371 -8.109,0.762 -12.087,1.182c0.089,0.673 0.148,1.372 0.148,2.131"/><path d="M457.386,101.231l0,22.038l12.544,0l0,-24.323c0,-0.039 0.007,-0.072 0.007,-0.108c-4.251,0.542 -8.43,1.116 -12.531,1.717c-0.003,0.227 -0.02,0.45 -0.02,0.676Z"/><rect x="805.152" y="40.267" width="149.915" height="100.331"/><path d="M955.651,39.685l-151.08,0l0,101.496l151.08,0l0,-101.496Zm-1.165,100.331l-148.75,0l0,-99.162l148.75,0l0,99.162Z"/><path d="M907.011,72.697l1.202,-3.756l1.205,3.752l3.926,0l-3.184,2.288l1.195,3.703l-3.142,-2.291l-3.138,2.291l1.192,-3.703l-3.184,-2.288l3.93,0.003Z" style="fill:#fff;"/><path d="M878.877,56.468l1.205,-3.756l1.198,3.749l3.933,0l-3.188,2.291l1.195,3.703l-3.138,-2.288l-3.145,2.288l1.195,-3.703l-3.184,-2.291l3.93,0.007Z" style="fill:#fff;"/><path d="M842.456,88.96l3.936,0.01l1.195,-3.762l1.208,3.752l3.926,0l-3.188,2.288l1.198,3.706l-3.145,-2.288l-3.135,2.288l1.192,-3.706l-3.188,-2.288Z" style="fill:#fff;"/><path d="M855.09,111.228l-3.138,-2.298l-3.135,2.298l1.195,-3.703l-3.191,-2.291l3.93,0.003l1.202,-3.759l1.205,3.756l3.923,0l-3.184,2.291l1.195,3.703Z" style="fill:#fff;"/><path d="M853.894,75.032l1.195,3.7l-3.138,-2.288l-3.135,2.288l1.195,-3.7l-3.188,-2.291l3.926,0.003l1.202,-3.756l1.205,3.752l3.926,0l-3.188,2.291Z" style="fill:#fff;"/><path d="M862.631,60.83l1.202,-3.756l1.205,3.752l3.926,0l-3.184,2.291l1.192,3.703l-3.135,-2.291l-3.135,2.291l1.188,-3.703l-3.184,-2.291l3.926,0.003Z" style="fill:#fff;"/><path d="M866.999,123.137l-3.138,-2.288l-3.135,2.288l1.192,-3.706l-3.188,-2.288l3.93,0.003l1.198,-3.752l1.205,3.749l3.93,0l-3.184,2.288l1.192,3.706Z" style="fill:#fff;"/><path d="M883.222,127.448l-3.138,-2.288l-3.138,2.288l1.188,-3.703l-3.188,-2.291l3.936,0.003l1.198,-3.756l1.205,3.752l3.93,0l-3.191,2.291l1.198,3.703Z" style="fill:#fff;"/><path d="M899.445,123.137l-3.142,-2.288l-3.135,2.288l1.188,-3.706l-3.184,-2.288l3.93,0.003l1.202,-3.752l1.202,3.749l3.933,0l-3.191,2.288l1.198,3.706Z" style="fill:#fff;"/><path d="M898.295,63.122l1.192,3.703l-3.132,-2.298l-3.142,2.298l1.192,-3.703l-3.181,-2.295l3.923,0.007l1.205,-3.756l1.198,3.749l3.933,0l-3.188,2.295Z" style="fill:#fff;"/><path d="M911.354,111.228l-3.142,-2.298l-3.135,2.298l1.192,-3.703l-3.188,-2.291l3.93,0.003l1.202,-3.759l1.205,3.756l3.926,0l-3.188,2.291l1.198,3.703Z" style="fill:#fff;"/><path d="M915.662,94.91l-3.142,-2.295l-3.129,2.295l1.188,-3.703l-3.188,-2.288l3.93,0.003l1.198,-3.759l1.205,3.756l3.933,0l-3.191,2.288l1.195,3.703Z" style="fill:#fff;"/><path d="M980.609,111.227l0,-13.68l4.136,0l2.482,9.33l2.452,-9.33l4.143,0l0,13.68l-2.564,0l0,-10.768l-2.718,10.768l-2.659,0l-2.705,-10.768l0,10.768l-2.567,0Z"/><path d="M1002.437,105.423c-0.02,-0.758 -0.217,-1.336 -0.588,-1.733c-0.374,-0.391 -0.831,-0.591 -1.362,-0.591c-0.575,0 -1.047,0.21 -1.421,0.627c-0.371,0.417 -0.555,0.982 -0.548,1.697l3.92,0Zm-0.151,2.649l2.613,0.44c-0.335,0.959 -0.867,1.687 -1.589,2.19c-0.726,0.499 -1.632,0.748 -2.721,0.748c-1.724,0 -2.997,-0.561 -3.825,-1.687c-0.653,-0.903 -0.982,-2.039 -0.982,-3.417c0,-1.641 0.43,-2.928 1.287,-3.857c0.86,-0.932 1.947,-1.395 3.26,-1.395c1.474,0 2.636,0.489 3.49,1.461c0.85,0.975 1.257,2.465 1.221,4.475l-6.569,0c0.016,0.778 0.23,1.382 0.634,1.815c0.404,0.433 0.909,0.647 1.51,0.647c0.41,0 0.758,-0.112 1.037,-0.335c0.279,-0.223 0.492,-0.584 0.634,-1.083"/><path d="M1009.268,106.057c0,1.057 0.144,1.822 0.437,2.295c0.423,0.686 1.014,1.028 1.773,1.028c0.604,0 1.119,-0.256 1.543,-0.771c0.423,-0.512 0.634,-1.277 0.634,-2.298c0,-1.139 -0.207,-1.96 -0.617,-2.459c-0.41,-0.502 -0.936,-0.752 -1.576,-0.752c-0.624,0 -1.142,0.246 -1.566,0.742c-0.417,0.496 -0.627,1.231 -0.627,2.216m6.999,5.171l-2.436,0l0,-1.458c-0.404,0.568 -0.883,0.988 -1.435,1.267c-0.548,0.276 -1.103,0.414 -1.664,0.414c-1.139,0 -2.114,-0.46 -2.925,-1.379c-0.811,-0.916 -1.218,-2.196 -1.218,-3.838c0,-1.681 0.394,-2.955 1.185,-3.831c0.791,-0.873 1.789,-1.31 2.994,-1.31c1.11,0 2.065,0.46 2.876,1.379l0,-4.924l2.623,0l0,13.68Z"/><path d="M1024.741,105.423c-0.02,-0.758 -0.217,-1.336 -0.588,-1.733c-0.374,-0.391 -0.831,-0.591 -1.362,-0.591c-0.575,0 -1.047,0.21 -1.421,0.627c-0.371,0.417 -0.555,0.982 -0.548,1.697l3.92,0Zm-0.151,2.649l2.613,0.44c-0.335,0.959 -0.867,1.687 -1.589,2.19c-0.726,0.499 -1.632,0.748 -2.721,0.748c-1.724,0 -2.997,-0.561 -3.825,-1.687c-0.653,-0.903 -0.982,-2.039 -0.982,-3.417c0,-1.641 0.43,-2.928 1.287,-3.857c0.86,-0.932 1.947,-1.395 3.26,-1.395c1.474,0 2.636,0.489 3.49,1.461c0.85,0.975 1.257,2.465 1.221,4.475l-6.569,0c0.016,0.778 0.23,1.382 0.634,1.815c0.404,0.433 0.909,0.647 1.51,0.647c0.41,0 0.758,-0.112 1.037,-0.335c0.279,-0.223 0.492,-0.584 0.634,-1.083"/><path d="M1031.58,106.067c0,1.051 0.204,1.822 0.611,2.308c0.407,0.489 0.913,0.732 1.51,0.732c0.64,0 1.182,-0.249 1.622,-0.752c0.443,-0.499 0.663,-1.241 0.663,-2.222c0,-1.028 -0.213,-1.789 -0.637,-2.288c-0.423,-0.496 -0.955,-0.748 -1.605,-0.748c-0.627,0 -1.146,0.246 -1.553,0.735c-0.407,0.489 -0.611,1.234 -0.611,2.236m-2.341,5.814l2.994,0.361c0.049,0.348 0.167,0.591 0.348,0.719c0.246,0.187 0.64,0.282 1.175,0.282c0.683,0 1.195,-0.105 1.536,-0.309c0.23,-0.138 0.407,-0.358 0.525,-0.663c0.079,-0.217 0.121,-0.62 0.121,-1.202l0,-1.448c-0.785,1.07 -1.773,1.605 -2.968,1.605c-1.333,0 -2.387,-0.561 -3.165,-1.691c-0.611,-0.886 -0.916,-1.996 -0.916,-3.319c0,-1.664 0.401,-2.935 1.198,-3.808c0.801,-0.88 1.796,-1.316 2.984,-1.316c1.225,0 2.239,0.538 3.033,1.615l0,-1.392l2.452,0l0,8.893c0,1.169 -0.095,2.042 -0.289,2.623c-0.19,0.578 -0.463,1.031 -0.811,1.362c-0.348,0.328 -0.814,0.584 -1.395,0.771c-0.581,0.187 -1.316,0.282 -2.206,0.282c-1.681,0 -2.873,-0.289 -3.575,-0.863c-0.703,-0.575 -1.054,-1.307 -1.054,-2.19c0,-0.085 0.003,-0.19 0.01,-0.315"/><path d="M1047.044,105.423c-0.02,-0.758 -0.217,-1.336 -0.588,-1.733c-0.374,-0.391 -0.831,-0.591 -1.362,-0.591c-0.575,0 -1.047,0.21 -1.421,0.627c-0.371,0.417 -0.555,0.982 -0.548,1.697l3.92,0Zm-0.148,2.649l2.613,0.44c-0.338,0.959 -0.867,1.687 -1.592,2.19c-0.726,0.499 -1.632,0.748 -2.721,0.748c-1.724,0 -2.997,-0.561 -3.825,-1.687c-0.653,-0.903 -0.982,-2.039 -0.982,-3.417c0,-1.641 0.43,-2.928 1.287,-3.857c0.86,-0.932 1.947,-1.395 3.26,-1.395c1.474,0 2.636,0.489 3.49,1.461c0.85,0.975 1.257,2.465 1.221,4.475l-6.569,0c0.016,0.778 0.23,1.382 0.634,1.815c0.404,0.433 0.909,0.647 1.51,0.647c0.41,0 0.758,-0.112 1.037,-0.335c0.279,-0.223 0.492,-0.584 0.637,-1.083"/><path d="M1050.636,101.317l1.454,0l0,-0.748c0,-0.831 0.092,-1.454 0.266,-1.865c0.181,-0.41 0.506,-0.745 0.982,-1.005c0.476,-0.256 1.077,-0.387 1.806,-0.387c0.748,0 1.477,0.112 2.193,0.335l-0.355,1.832c-0.417,-0.098 -0.817,-0.151 -1.202,-0.151c-0.381,0 -0.653,0.089 -0.817,0.269c-0.167,0.174 -0.249,0.515 -0.249,1.021l0,0.699l1.96,0l0,2.062l-1.96,0l0,7.849l-2.623,0l0,-7.849l-1.454,0l0,-2.062Z"/><path d="M1058.148,101.318l2.62,0l0,9.911l-2.62,0l0,-9.911Zm0,-3.772l2.62,0l0,2.426l-2.62,0l0,-2.426Z"/><path d="M1072.473,111.227l-2.623,0l0,-5.059c0,-1.07 -0.053,-1.763 -0.167,-2.075c-0.112,-0.315 -0.292,-0.558 -0.545,-0.735c-0.253,-0.171 -0.555,-0.259 -0.909,-0.259c-0.456,0 -0.863,0.125 -1.225,0.371c-0.361,0.253 -0.607,0.581 -0.739,0.995c-0.135,0.407 -0.204,1.169 -0.204,2.275l0,4.488l-2.623,0l0,-9.911l2.436,0l0,1.458c0.867,-1.119 1.953,-1.681 3.27,-1.681c0.578,0 1.106,0.102 1.586,0.312c0.479,0.207 0.84,0.476 1.087,0.798c0.243,0.325 0.417,0.693 0.512,1.103c0.098,0.41 0.144,0.998 0.144,1.763l0,6.159Z"/><path d="M1080.602,106.468c-0.335,0.112 -0.87,0.246 -1.595,0.401c-0.729,0.158 -1.205,0.309 -1.428,0.46c-0.341,0.24 -0.515,0.548 -0.515,0.922c0,0.368 0.138,0.686 0.41,0.952c0.276,0.269 0.624,0.401 1.047,0.401c0.473,0 0.926,-0.154 1.353,-0.466c0.318,-0.236 0.525,-0.525 0.624,-0.867c0.069,-0.223 0.105,-0.653 0.105,-1.28l0,-0.522Zm-3.509,-2.127l-2.38,-0.43c0.266,-0.959 0.729,-1.668 1.382,-2.127c0.653,-0.46 1.622,-0.689 2.912,-0.689c1.169,0 2.039,0.138 2.613,0.414c0.571,0.279 0.972,0.627 1.208,1.057c0.233,0.423 0.351,1.205 0.351,2.347l-0.03,3.06c0,0.87 0.039,1.513 0.125,1.927c0.085,0.41 0.243,0.857 0.473,1.33l-2.597,0c-0.069,-0.174 -0.151,-0.433 -0.249,-0.775c-0.043,-0.154 -0.076,-0.259 -0.092,-0.309c-0.45,0.437 -0.929,0.762 -1.438,0.978c-0.512,0.217 -1.057,0.328 -1.635,0.328c-1.021,0 -1.825,-0.276 -2.413,-0.831c-0.588,-0.552 -0.88,-1.254 -0.88,-2.101c0,-0.558 0.131,-1.057 0.401,-1.497c0.266,-0.44 0.643,-0.775 1.123,-1.008c0.483,-0.233 1.179,-0.437 2.088,-0.611c1.225,-0.23 2.075,-0.443 2.547,-0.643l0,-0.263c0,-0.506 -0.125,-0.863 -0.374,-1.077c-0.249,-0.217 -0.719,-0.325 -1.408,-0.325c-0.466,0 -0.831,0.095 -1.093,0.279c-0.259,0.184 -0.469,0.506 -0.634,0.965"/><path d="M1094.776,111.227l-2.62,0l0,-5.059c0,-1.07 -0.056,-1.763 -0.171,-2.075c-0.112,-0.315 -0.292,-0.558 -0.545,-0.735c-0.253,-0.171 -0.555,-0.259 -0.909,-0.259c-0.453,0 -0.863,0.125 -1.225,0.371c-0.361,0.253 -0.607,0.581 -0.739,0.995c-0.135,0.407 -0.204,1.169 -0.204,2.275l0,4.488l-2.623,0l0,-9.911l2.439,0l0,1.458c0.863,-1.119 1.953,-1.681 3.263,-1.681c0.581,0 1.11,0.102 1.589,0.312c0.479,0.207 0.84,0.476 1.087,0.798c0.243,0.325 0.417,0.693 0.512,1.103c0.095,0.41 0.144,0.998 0.144,1.763l0,6.159Z"/><path d="M1106.078,104.247l-2.587,0.466c-0.085,-0.515 -0.282,-0.906 -0.594,-1.169c-0.305,-0.259 -0.706,-0.387 -1.195,-0.387c-0.657,0 -1.175,0.223 -1.566,0.676c-0.387,0.45 -0.581,1.205 -0.581,2.262c0,1.175 0.197,2.006 0.591,2.492c0.394,0.483 0.926,0.729 1.592,0.729c0.499,0 0.906,-0.144 1.225,-0.427c0.315,-0.282 0.538,-0.768 0.67,-1.461l2.577,0.44c-0.269,1.182 -0.781,2.075 -1.543,2.679c-0.758,0.604 -1.773,0.906 -3.05,0.906c-1.448,0 -2.607,-0.456 -3.467,-1.376c-0.863,-0.913 -1.293,-2.18 -1.293,-3.795c0,-1.638 0.433,-2.912 1.297,-3.825c0.867,-0.909 2.035,-1.366 3.509,-1.366c1.208,0 2.167,0.259 2.879,0.781c0.712,0.519 1.225,1.31 1.536,2.374"/><path d="M1108.064,101.318l2.623,0l0,9.911l-2.623,0l0,-9.911Zm0,-3.772l2.623,0l0,2.426l-2.623,0l0,-2.426Z"/><path d="M1119.263,105.423c-0.02,-0.758 -0.213,-1.336 -0.588,-1.733c-0.371,-0.391 -0.827,-0.591 -1.362,-0.591c-0.571,0 -1.044,0.21 -1.418,0.627c-0.374,0.417 -0.558,0.982 -0.552,1.697l3.92,0Zm-0.148,2.649l2.613,0.44c-0.338,0.959 -0.87,1.687 -1.592,2.19c-0.726,0.499 -1.632,0.748 -2.721,0.748c-1.724,0 -2.997,-0.561 -3.825,-1.687c-0.653,-0.903 -0.982,-2.039 -0.982,-3.417c0,-1.641 0.43,-2.928 1.29,-3.857c0.857,-0.932 1.943,-1.395 3.257,-1.395c1.474,0 2.636,0.489 3.49,1.461c0.85,0.975 1.261,2.465 1.221,4.475l-6.569,0c0.02,0.778 0.23,1.382 0.637,1.815c0.404,0.433 0.906,0.647 1.51,0.647c0.41,0 0.755,-0.112 1.034,-0.335c0.279,-0.223 0.492,-0.584 0.637,-1.083"/><path d="M1126.515,111.227l-2.623,0l0,-9.911l2.436,0l0,1.408c0.417,-0.663 0.791,-1.103 1.126,-1.313c0.332,-0.213 0.709,-0.318 1.133,-0.318c0.597,0 1.172,0.164 1.727,0.496l-0.811,2.285c-0.443,-0.286 -0.854,-0.43 -1.234,-0.43c-0.364,0 -0.676,0.102 -0.932,0.302c-0.253,0.204 -0.456,0.568 -0.601,1.1c-0.148,0.529 -0.22,1.635 -0.22,3.322l0,3.06Z"/><path d="M1133.532,106.057c0,1.057 0.144,1.822 0.437,2.295c0.423,0.686 1.014,1.028 1.773,1.028c0.604,0 1.119,-0.256 1.543,-0.771c0.423,-0.512 0.634,-1.277 0.634,-2.298c0,-1.139 -0.207,-1.96 -0.617,-2.459c-0.41,-0.502 -0.936,-0.752 -1.576,-0.752c-0.624,0 -1.142,0.246 -1.563,0.742c-0.42,0.496 -0.63,1.231 -0.63,2.216m6.999,5.171l-2.436,0l0,-1.458c-0.404,0.568 -0.883,0.988 -1.435,1.267c-0.548,0.276 -1.103,0.414 -1.664,0.414c-1.139,0 -2.114,-0.46 -2.925,-1.379c-0.811,-0.916 -1.218,-2.196 -1.218,-3.838c0,-1.681 0.397,-2.955 1.185,-3.831c0.791,-0.873 1.789,-1.31 2.994,-1.31c1.11,0 2.068,0.46 2.876,1.379l0,-4.924l2.623,0l0,13.68Z"/><path d="M1150.516,106.057c0,1.057 0.144,1.822 0.437,2.295c0.423,0.686 1.014,1.028 1.773,1.028c0.604,0 1.119,-0.256 1.543,-0.771c0.423,-0.512 0.634,-1.277 0.634,-2.298c0,-1.139 -0.207,-1.96 -0.617,-2.459c-0.41,-0.502 -0.936,-0.752 -1.576,-0.752c-0.624,0 -1.142,0.246 -1.566,0.742c-0.417,0.496 -0.627,1.231 -0.627,2.216m6.999,5.171l-2.436,0l0,-1.458c-0.404,0.568 -0.883,0.988 -1.435,1.267c-0.548,0.276 -1.103,0.414 -1.664,0.414c-1.139,0 -2.114,-0.46 -2.925,-1.379c-0.811,-0.916 -1.218,-2.196 -1.218,-3.838c0,-1.681 0.394,-2.955 1.185,-3.831c0.791,-0.873 1.789,-1.31 2.994,-1.31c1.106,0 2.065,0.46 2.876,1.379l0,-4.924l2.623,0l0,13.68Z"/><path d="M1162.181,106.271c0,0.985 0.233,1.737 0.699,2.262c0.466,0.522 1.044,0.781 1.727,0.781c0.683,0 1.257,-0.259 1.72,-0.781c0.463,-0.525 0.696,-1.284 0.696,-2.278c0,-0.972 -0.233,-1.717 -0.696,-2.239c-0.463,-0.522 -1.037,-0.785 -1.72,-0.785c-0.683,0 -1.261,0.263 -1.727,0.785c-0.466,0.522 -0.699,1.274 -0.699,2.255m-2.689,-0.138c0,-0.873 0.213,-1.714 0.643,-2.528c0.43,-0.817 1.037,-1.441 1.825,-1.868c0.785,-0.43 1.664,-0.643 2.636,-0.643c1.5,0 2.728,0.486 3.687,1.458c0.959,0.975 1.438,2.206 1.438,3.693c0,1.5 -0.486,2.741 -1.454,3.729c-0.965,0.985 -2.183,1.477 -3.654,1.477c-0.906,0 -1.773,-0.207 -2.597,-0.617c-0.827,-0.41 -1.451,-1.011 -1.881,-1.806c-0.43,-0.791 -0.643,-1.756 -0.643,-2.895"/><path d="M1173.854,106.271c0,0.985 0.233,1.737 0.703,2.262c0.466,0.522 1.041,0.781 1.724,0.781c0.686,0 1.261,-0.259 1.72,-0.781c0.466,-0.525 0.699,-1.284 0.699,-2.278c0,-0.972 -0.233,-1.717 -0.699,-2.239c-0.46,-0.522 -1.034,-0.785 -1.72,-0.785c-0.683,0 -1.257,0.263 -1.724,0.785c-0.469,0.522 -0.703,1.274 -0.703,2.255m-2.689,-0.138c0,-0.873 0.217,-1.714 0.647,-2.528c0.427,-0.817 1.037,-1.441 1.822,-1.868c0.788,-0.43 1.668,-0.643 2.636,-0.643c1.5,0 2.728,0.486 3.687,1.458c0.959,0.975 1.438,2.206 1.438,3.693c0,1.5 -0.483,2.741 -1.454,3.729c-0.965,0.985 -2.183,1.477 -3.651,1.477c-0.906,0 -1.776,-0.207 -2.6,-0.617c-0.824,-0.41 -1.451,-1.011 -1.878,-1.806c-0.43,-0.791 -0.647,-1.756 -0.647,-2.895"/><path d="M1185.959,111.227l-2.623,0l0,-9.911l2.436,0l0,1.408c0.417,-0.663 0.791,-1.103 1.126,-1.313c0.332,-0.213 0.709,-0.318 1.133,-0.318c0.597,0 1.172,0.164 1.727,0.496l-0.811,2.285c-0.443,-0.286 -0.854,-0.43 -1.234,-0.43c-0.364,0 -0.676,0.102 -0.932,0.302c-0.253,0.204 -0.456,0.568 -0.601,1.1c-0.148,0.529 -0.22,1.635 -0.22,3.322l0,3.06Z"/><path d="M982.718,128.991c0,1.057 0.148,1.822 0.44,2.295c0.423,0.686 1.014,1.028 1.773,1.028c0.604,0 1.116,-0.256 1.54,-0.768c0.423,-0.515 0.634,-1.28 0.634,-2.301c0,-1.139 -0.207,-1.96 -0.617,-2.459c-0.41,-0.502 -0.932,-0.752 -1.576,-0.752c-0.62,0 -1.142,0.246 -1.563,0.742c-0.42,0.496 -0.63,1.231 -0.63,2.216m6.999,5.171l-2.436,0l0,-1.458c-0.404,0.568 -0.88,0.988 -1.431,1.267c-0.552,0.276 -1.106,0.414 -1.664,0.414c-1.139,0 -2.114,-0.46 -2.928,-1.376c-0.811,-0.919 -1.215,-2.2 -1.215,-3.841c0,-1.681 0.391,-2.955 1.182,-3.831c0.791,-0.873 1.789,-1.31 2.997,-1.31c1.106,0 2.065,0.46 2.873,1.382l0,-4.928l2.623,0l0,13.68Z"/><path d="M998.19,128.356c-0.02,-0.758 -0.213,-1.336 -0.588,-1.73c-0.371,-0.394 -0.827,-0.594 -1.362,-0.594c-0.571,0 -1.044,0.21 -1.418,0.627c-0.374,0.417 -0.558,0.982 -0.552,1.697l3.92,0Zm-0.148,2.649l2.61,0.44c-0.335,0.959 -0.863,1.687 -1.589,2.19c-0.726,0.499 -1.632,0.748 -2.721,0.748c-1.724,0 -2.997,-0.561 -3.825,-1.687c-0.653,-0.903 -0.978,-2.039 -0.978,-3.417c0,-1.641 0.427,-2.928 1.287,-3.857c0.857,-0.932 1.943,-1.395 3.257,-1.395c1.474,0 2.636,0.489 3.49,1.461c0.85,0.975 1.261,2.465 1.221,4.475l-6.569,0c0.02,0.778 0.23,1.382 0.637,1.815c0.404,0.433 0.906,0.647 1.51,0.647c0.41,0 0.755,-0.112 1.034,-0.335c0.279,-0.223 0.492,-0.584 0.637,-1.083"/><path d="M1008.26,134.161l0,-13.68l10.144,0l0,2.314l-7.383,0l0,3.033l6.868,0l0,2.305l-6.868,0l0,3.723l7.642,0l0,2.305l-10.403,0Z"/><path d="M1027.511,134.161l0,-1.484c-0.361,0.529 -0.837,0.945 -1.421,1.251c-0.591,0.305 -1.211,0.456 -1.865,0.456c-0.663,0 -1.261,-0.148 -1.789,-0.44c-0.529,-0.289 -0.913,-0.699 -1.149,-1.231c-0.236,-0.525 -0.355,-1.257 -0.355,-2.193l0,-6.27l2.623,0l0,4.553c0,1.395 0.046,2.249 0.144,2.564c0.095,0.315 0.272,0.561 0.525,0.745c0.256,0.184 0.581,0.276 0.972,0.276c0.446,0 0.85,-0.121 1.205,-0.371c0.355,-0.243 0.597,-0.548 0.729,-0.913c0.128,-0.364 0.194,-1.254 0.194,-2.672l0,-4.182l2.623,0l0,9.911l-2.436,0Z"/><path d="M1035.174,134.161l-2.623,0l0,-9.911l2.436,0l0,1.408c0.417,-0.663 0.791,-1.103 1.126,-1.313c0.332,-0.213 0.709,-0.318 1.133,-0.318c0.597,0 1.172,0.164 1.727,0.496l-0.811,2.285c-0.443,-0.286 -0.854,-0.43 -1.234,-0.43c-0.364,0 -0.676,0.102 -0.932,0.302c-0.256,0.204 -0.456,0.568 -0.601,1.1c-0.148,0.529 -0.22,1.635 -0.22,3.322l0,3.06Z"/><path d="M1042.181,129.205c0,0.985 0.233,1.737 0.699,2.262c0.469,0.522 1.044,0.781 1.727,0.781c0.686,0 1.257,-0.259 1.72,-0.781c0.466,-0.525 0.699,-1.284 0.699,-2.278c0,-0.972 -0.233,-1.717 -0.699,-2.239c-0.463,-0.522 -1.034,-0.785 -1.72,-0.785c-0.683,0 -1.257,0.263 -1.727,0.785c-0.466,0.522 -0.699,1.274 -0.699,2.255m-2.689,-0.138c0,-0.873 0.217,-1.714 0.647,-2.528c0.427,-0.817 1.037,-1.441 1.822,-1.868c0.788,-0.43 1.668,-0.643 2.639,-0.643c1.497,0 2.725,0.486 3.683,1.458c0.959,0.975 1.438,2.206 1.438,3.693c0,1.5 -0.483,2.741 -1.451,3.729c-0.968,0.985 -2.186,1.477 -3.654,1.477c-0.906,0 -1.776,-0.207 -2.6,-0.617c-0.824,-0.41 -1.451,-1.011 -1.878,-1.806c-0.43,-0.791 -0.647,-1.756 -0.647,-2.895"/><path d="M1054.294,129.038c0,1.113 0.223,1.934 0.663,2.469c0.443,0.532 0.978,0.794 1.615,0.794c0.607,0 1.116,-0.243 1.52,-0.732c0.404,-0.486 0.607,-1.287 0.607,-2.403c0,-1.037 -0.21,-1.809 -0.627,-2.314c-0.414,-0.502 -0.932,-0.755 -1.546,-0.755c-0.64,0 -1.175,0.246 -1.599,0.742c-0.423,0.496 -0.634,1.228 -0.634,2.2m-2.593,-4.79l2.442,0l0,1.458c0.318,-0.499 0.748,-0.903 1.29,-1.215c0.542,-0.309 1.142,-0.466 1.802,-0.466c1.149,0 2.127,0.453 2.928,1.356c0.804,0.9 1.205,2.157 1.205,3.769c0,1.655 -0.407,2.941 -1.215,3.857c-0.808,0.919 -1.789,1.379 -2.938,1.379c-0.548,0 -1.044,-0.112 -1.49,-0.328c-0.443,-0.217 -0.913,-0.591 -1.402,-1.123l0,4.997l-2.623,0l0,-13.683Z"/><path d="M1069.337,128.356c-0.02,-0.758 -0.213,-1.336 -0.588,-1.73c-0.371,-0.394 -0.827,-0.594 -1.362,-0.594c-0.571,0 -1.044,0.21 -1.418,0.627c-0.374,0.417 -0.558,0.982 -0.552,1.697l3.92,0Zm-0.151,2.649l2.613,0.44c-0.335,0.959 -0.867,1.687 -1.589,2.19c-0.726,0.499 -1.632,0.748 -2.721,0.748c-1.724,0 -2.997,-0.561 -3.825,-1.687c-0.653,-0.903 -0.982,-2.039 -0.982,-3.417c0,-1.641 0.43,-2.928 1.29,-3.857c0.857,-0.932 1.943,-1.395 3.257,-1.395c1.474,0 2.636,0.489 3.49,1.461c0.85,0.975 1.261,2.465 1.221,4.475l-6.569,0c0.02,0.778 0.23,1.382 0.634,1.815c0.407,0.433 0.909,0.647 1.513,0.647c0.41,0 0.755,-0.112 1.034,-0.335c0.279,-0.223 0.492,-0.584 0.634,-1.083"/><path d="M1073.155,131.332l2.633,-0.401c0.112,0.509 0.335,0.9 0.68,1.162c0.341,0.266 0.821,0.394 1.435,0.394c0.68,0 1.192,-0.121 1.533,-0.371c0.23,-0.174 0.345,-0.407 0.345,-0.699c0,-0.2 -0.062,-0.364 -0.187,-0.496c-0.128,-0.121 -0.42,-0.24 -0.877,-0.345c-2.114,-0.466 -3.457,-0.893 -4.022,-1.277c-0.785,-0.535 -1.179,-1.28 -1.179,-2.232c0,-0.857 0.341,-1.579 1.021,-2.163c0.676,-0.584 1.73,-0.877 3.155,-0.877c1.356,0 2.364,0.22 3.02,0.66c0.66,0.443 1.116,1.096 1.366,1.963l-2.475,0.456c-0.105,-0.387 -0.309,-0.683 -0.601,-0.89c-0.299,-0.204 -0.719,-0.305 -1.267,-0.305c-0.689,0 -1.182,0.095 -1.481,0.289c-0.2,0.138 -0.299,0.315 -0.299,0.532c0,0.187 0.085,0.345 0.259,0.476c0.236,0.174 1.054,0.42 2.449,0.735c1.398,0.318 2.374,0.709 2.928,1.169c0.548,0.466 0.821,1.116 0.821,1.95c0,0.909 -0.381,1.687 -1.139,2.344c-0.758,0.65 -1.881,0.978 -3.371,0.978c-1.349,0 -2.416,-0.276 -3.201,-0.821c-0.788,-0.548 -1.303,-1.29 -1.546,-2.232"/><path d="M1090.595,128.356c-0.02,-0.758 -0.213,-1.336 -0.588,-1.73c-0.371,-0.394 -0.827,-0.594 -1.362,-0.594c-0.571,0 -1.044,0.21 -1.418,0.627c-0.374,0.417 -0.558,0.982 -0.552,1.697l3.92,0Zm-0.148,2.649l2.613,0.44c-0.338,0.959 -0.87,1.687 -1.592,2.19c-0.726,0.499 -1.632,0.748 -2.721,0.748c-1.724,0 -2.997,-0.561 -3.825,-1.687c-0.653,-0.903 -0.982,-2.039 -0.982,-3.417c0,-1.641 0.43,-2.928 1.29,-3.857c0.857,-0.932 1.943,-1.395 3.257,-1.395c1.474,0 2.636,0.489 3.49,1.461c0.85,0.975 1.261,2.465 1.221,4.475l-6.569,0c0.02,0.778 0.23,1.382 0.637,1.815c0.404,0.433 0.906,0.647 1.51,0.647c0.41,0 0.755,-0.112 1.034,-0.335c0.279,-0.223 0.492,-0.584 0.637,-1.083"/><path d="M1100.646,120.48l2.761,0l0,7.409c0,1.175 0.033,1.94 0.102,2.285c0.118,0.561 0.401,1.011 0.844,1.349c0.446,0.338 1.054,0.509 1.825,0.509c0.785,0 1.376,-0.161 1.773,-0.479c0.401,-0.322 0.64,-0.716 0.722,-1.182c0.079,-0.466 0.118,-1.241 0.118,-2.324l0,-7.567l2.764,0l0,7.186c0,1.641 -0.076,2.804 -0.223,3.48c-0.151,0.68 -0.427,1.251 -0.827,1.717c-0.401,0.469 -0.936,0.84 -1.609,1.116c-0.673,0.276 -1.55,0.414 -2.633,0.414c-1.307,0 -2.298,-0.148 -2.974,-0.453c-0.673,-0.299 -1.205,-0.693 -1.595,-1.175c-0.394,-0.479 -0.653,-0.985 -0.778,-1.517c-0.181,-0.781 -0.269,-1.94 -0.269,-3.47l0,-7.298Z"/><path d="M1123.462,134.161l-2.62,0l0,-5.059c0,-1.07 -0.056,-1.763 -0.167,-2.075c-0.115,-0.315 -0.295,-0.558 -0.548,-0.735c-0.253,-0.171 -0.555,-0.259 -0.909,-0.259c-0.453,0 -0.863,0.125 -1.225,0.371c-0.361,0.253 -0.607,0.581 -0.739,0.995c-0.135,0.407 -0.204,1.169 -0.204,2.275l0,4.488l-2.623,0l0,-9.911l2.439,0l0,1.458c0.863,-1.119 1.953,-1.681 3.266,-1.681c0.578,0 1.106,0.102 1.586,0.312c0.479,0.207 0.84,0.476 1.087,0.798c0.243,0.325 0.417,0.693 0.512,1.103c0.098,0.41 0.144,0.998 0.144,1.763l0,6.159Z"/><path d="M1126.123,124.249l2.62,0l0,9.911l-2.62,0l0,-9.911Zm0,-3.769l2.62,0l0,2.426l-2.62,0l0,-2.426Z"/><path d="M1137.321,128.356c-0.02,-0.758 -0.217,-1.336 -0.588,-1.73c-0.374,-0.394 -0.831,-0.594 -1.362,-0.594c-0.575,0 -1.047,0.21 -1.421,0.627c-0.371,0.417 -0.555,0.982 -0.548,1.697l3.92,0Zm-0.151,2.649l2.613,0.44c-0.335,0.959 -0.867,1.687 -1.589,2.19c-0.726,0.499 -1.632,0.748 -2.721,0.748c-1.724,0 -2.997,-0.561 -3.825,-1.687c-0.653,-0.903 -0.982,-2.039 -0.982,-3.417c0,-1.641 0.43,-2.928 1.287,-3.857c0.86,-0.932 1.947,-1.395 3.26,-1.395c1.474,0 2.636,0.489 3.49,1.461c0.85,0.975 1.257,2.465 1.221,4.475l-6.569,0c0.016,0.778 0.23,1.382 0.634,1.815c0.404,0.433 0.909,0.647 1.51,0.647c0.41,0 0.758,-0.112 1.037,-0.335c0.279,-0.223 0.492,-0.584 0.634,-1.083"/><path d="M989.399,54.545l2.679,0.85c-0.41,1.494 -1.093,2.603 -2.049,3.326c-0.955,0.726 -2.167,1.087 -3.634,1.087c-1.819,0 -3.309,-0.62 -4.481,-1.858c-1.169,-1.244 -1.753,-2.941 -1.753,-5.092c0,-2.278 0.588,-4.048 1.763,-5.305c1.175,-1.261 2.721,-1.891 4.639,-1.891c1.674,0 3.033,0.496 4.077,1.484c0.624,0.584 1.09,1.425 1.402,2.521l-2.735,0.653c-0.164,-0.709 -0.499,-1.27 -1.014,-1.681c-0.512,-0.41 -1.136,-0.617 -1.868,-0.617c-1.014,0 -1.838,0.364 -2.469,1.093c-0.634,0.726 -0.949,1.907 -0.949,3.536c0,1.73 0.312,2.961 0.932,3.696c0.624,0.735 1.431,1.1 2.429,1.1c0.732,0 1.362,-0.23 1.891,-0.699c0.529,-0.466 0.909,-1.198 1.139,-2.203"/><path d="M996.511,54.62c0,0.985 0.233,1.737 0.703,2.262c0.466,0.522 1.041,0.781 1.724,0.781c0.686,0 1.261,-0.259 1.72,-0.781c0.466,-0.525 0.699,-1.284 0.699,-2.278c0,-0.972 -0.233,-1.717 -0.699,-2.239c-0.46,-0.522 -1.034,-0.785 -1.72,-0.785c-0.683,0 -1.257,0.263 -1.724,0.785c-0.469,0.522 -0.703,1.274 -0.703,2.255m-2.689,-0.138c0,-0.873 0.217,-1.714 0.647,-2.528c0.427,-0.817 1.037,-1.441 1.822,-1.868c0.788,-0.43 1.668,-0.643 2.636,-0.643c1.5,0 2.728,0.486 3.687,1.458c0.959,0.975 1.438,2.206 1.438,3.693c0,1.5 -0.483,2.741 -1.454,3.729c-0.965,0.985 -2.183,1.477 -3.651,1.477c-0.906,0 -1.776,-0.207 -2.6,-0.617c-0.824,-0.41 -1.451,-1.011 -1.878,-1.806c-0.43,-0.791 -0.647,-1.756 -0.647,-2.895"/><path d="M1004.957,49.665l1.454,0l0,-0.745c0,-0.834 0.092,-1.458 0.266,-1.868c0.181,-0.41 0.506,-0.745 0.982,-1.005c0.476,-0.256 1.077,-0.387 1.806,-0.387c0.745,0 1.477,0.112 2.193,0.335l-0.355,1.832c-0.417,-0.098 -0.821,-0.151 -1.205,-0.151c-0.381,0 -0.65,0.089 -0.814,0.269c-0.167,0.174 -0.249,0.515 -0.249,1.021l0,0.699l1.96,0l0,2.062l-1.96,0l0,7.849l-2.623,0l0,-7.849l-1.454,0l0,-2.062Z"/><path d="M1012.467,49.666l2.623,0l0,9.911l-2.623,0l0,-9.911Zm0,-3.772l2.623,0l0,2.426l-2.623,0l0,-2.426Z"/><path d="M1026.794,59.576l-2.623,0l0,-5.059c0,-1.07 -0.056,-1.763 -0.167,-2.075c-0.112,-0.315 -0.295,-0.558 -0.545,-0.735c-0.253,-0.171 -0.558,-0.259 -0.913,-0.259c-0.453,0 -0.86,0.125 -1.221,0.371c-0.361,0.253 -0.611,0.581 -0.742,0.995c-0.135,0.407 -0.2,1.169 -0.2,2.275l0,4.488l-2.623,0l0,-9.911l2.436,0l0,1.458c0.863,-1.119 1.953,-1.681 3.266,-1.681c0.578,0 1.106,0.102 1.586,0.312c0.479,0.207 0.844,0.476 1.087,0.798c0.246,0.325 0.417,0.693 0.515,1.103c0.095,0.41 0.144,0.998 0.144,1.763l0,6.159Z"/><path d="M1034.921,54.817c-0.335,0.112 -0.867,0.246 -1.595,0.401c-0.729,0.158 -1.205,0.309 -1.428,0.46c-0.341,0.24 -0.512,0.548 -0.512,0.922c0,0.368 0.138,0.686 0.41,0.952c0.272,0.269 0.624,0.401 1.044,0.401c0.473,0 0.926,-0.154 1.353,-0.466c0.318,-0.236 0.529,-0.525 0.627,-0.867c0.069,-0.223 0.102,-0.653 0.102,-1.28l0,-0.522Zm-3.509,-2.127l-2.377,-0.43c0.266,-0.959 0.726,-1.668 1.379,-2.127c0.653,-0.46 1.625,-0.689 2.912,-0.689c1.169,0 2.042,0.138 2.613,0.414c0.575,0.279 0.975,0.627 1.208,1.057c0.233,0.423 0.351,1.205 0.351,2.347l-0.03,3.06c0,0.87 0.043,1.513 0.128,1.927c0.082,0.41 0.24,0.857 0.469,1.33l-2.593,0c-0.069,-0.174 -0.154,-0.433 -0.253,-0.775c-0.043,-0.154 -0.076,-0.259 -0.092,-0.309c-0.45,0.437 -0.929,0.762 -1.438,0.978c-0.512,0.217 -1.054,0.328 -1.632,0.328c-1.021,0 -1.825,-0.276 -2.413,-0.831c-0.588,-0.552 -0.883,-1.254 -0.883,-2.101c0,-0.558 0.135,-1.057 0.401,-1.497c0.269,-0.44 0.643,-0.775 1.126,-1.008c0.479,-0.233 1.179,-0.437 2.085,-0.611c1.228,-0.23 2.075,-0.443 2.547,-0.643l0,-0.263c0,-0.506 -0.125,-0.863 -0.374,-1.077c-0.249,-0.217 -0.716,-0.325 -1.408,-0.325c-0.466,0 -0.831,0.095 -1.093,0.279c-0.259,0.184 -0.469,0.506 -0.634,0.965"/><path d="M1049.097,59.576l-2.623,0l0,-5.059c0,-1.07 -0.056,-1.763 -0.167,-2.075c-0.112,-0.315 -0.295,-0.558 -0.545,-0.735c-0.253,-0.171 -0.558,-0.259 -0.913,-0.259c-0.453,0 -0.86,0.125 -1.221,0.371c-0.361,0.253 -0.611,0.581 -0.742,0.995c-0.135,0.407 -0.2,1.169 -0.2,2.275l0,4.488l-2.623,0l0,-9.911l2.436,0l0,1.458c0.863,-1.119 1.953,-1.681 3.266,-1.681c0.578,0 1.106,0.102 1.586,0.312c0.479,0.207 0.844,0.476 1.087,0.798c0.246,0.325 0.417,0.693 0.515,1.103c0.095,0.41 0.144,0.998 0.144,1.763l0,6.159Z"/><path d="M1060.397,52.595l-2.584,0.466c-0.089,-0.515 -0.286,-0.906 -0.594,-1.169c-0.305,-0.259 -0.706,-0.387 -1.198,-0.387c-0.653,0 -1.175,0.223 -1.563,0.676c-0.391,0.45 -0.584,1.205 -0.584,2.262c0,1.175 0.197,2.006 0.594,2.492c0.394,0.483 0.926,0.729 1.589,0.729c0.499,0 0.906,-0.144 1.221,-0.427c0.318,-0.282 0.542,-0.768 0.673,-1.461l2.577,0.44c-0.269,1.182 -0.781,2.075 -1.54,2.679c-0.758,0.604 -1.776,0.906 -3.053,0.906c-1.448,0 -2.603,-0.456 -3.463,-1.376c-0.863,-0.913 -1.297,-2.18 -1.297,-3.795c0,-1.638 0.437,-2.912 1.3,-3.825c0.863,-0.909 2.035,-1.366 3.509,-1.366c1.205,0 2.163,0.259 2.876,0.781c0.712,0.519 1.225,1.31 1.536,2.374"/><path d="M1064.924,48.452l1.287,-2.79l2.938,0l-2.564,2.79l-1.661,0Zm3.349,5.318c-0.02,-0.758 -0.213,-1.333 -0.588,-1.73c-0.371,-0.394 -0.827,-0.594 -1.362,-0.594c-0.571,0 -1.044,0.21 -1.418,0.627c-0.374,0.417 -0.558,0.982 -0.552,1.697l3.92,0Zm-0.148,2.653l2.613,0.437c-0.338,0.959 -0.867,1.687 -1.592,2.19c-0.726,0.499 -1.632,0.752 -2.721,0.752c-1.724,0 -2.997,-0.565 -3.825,-1.687c-0.653,-0.903 -0.978,-2.042 -0.978,-3.421c0,-1.641 0.427,-2.925 1.287,-3.854c0.86,-0.932 1.943,-1.398 3.257,-1.398c1.474,0 2.636,0.489 3.49,1.461c0.85,0.975 1.261,2.465 1.225,4.475l-6.572,0c0.02,0.778 0.23,1.385 0.637,1.815c0.404,0.433 0.906,0.65 1.51,0.65c0.41,0 0.755,-0.112 1.034,-0.338c0.282,-0.223 0.492,-0.584 0.637,-1.08"/><path d="M1080.844,54.454c0,1.113 0.22,1.934 0.66,2.469c0.443,0.532 0.982,0.794 1.618,0.794c0.607,0 1.113,-0.243 1.52,-0.732c0.404,-0.486 0.607,-1.287 0.607,-2.403c0,-1.037 -0.21,-1.809 -0.627,-2.314c-0.417,-0.502 -0.932,-0.755 -1.55,-0.755c-0.64,0 -1.172,0.246 -1.595,0.742c-0.423,0.496 -0.634,1.228 -0.634,2.2m-2.593,-4.79l2.442,0l0,1.458c0.318,-0.499 0.748,-0.903 1.29,-1.215c0.542,-0.309 1.139,-0.466 1.799,-0.466c1.152,0 2.127,0.453 2.932,1.356c0.801,0.9 1.205,2.157 1.205,3.769c0,1.655 -0.404,2.941 -1.215,3.857c-0.808,0.919 -1.789,1.379 -2.941,1.379c-0.545,0 -1.041,-0.112 -1.487,-0.328c-0.443,-0.217 -0.913,-0.591 -1.405,-1.123l0,4.997l-2.62,0l0,-13.683Z"/><path d="M1095.466,54.817c-0.335,0.112 -0.867,0.246 -1.595,0.401c-0.729,0.158 -1.205,0.309 -1.428,0.46c-0.341,0.24 -0.512,0.548 -0.512,0.922c0,0.368 0.138,0.686 0.41,0.952c0.272,0.269 0.624,0.401 1.044,0.401c0.473,0 0.926,-0.154 1.353,-0.466c0.318,-0.236 0.529,-0.525 0.627,-0.867c0.069,-0.223 0.102,-0.653 0.102,-1.28l0,-0.522Zm-3.509,-2.127l-2.377,-0.43c0.266,-0.959 0.726,-1.668 1.379,-2.127c0.653,-0.46 1.625,-0.689 2.912,-0.689c1.169,0 2.042,0.138 2.613,0.414c0.575,0.279 0.975,0.627 1.208,1.057c0.233,0.423 0.351,1.205 0.351,2.347l-0.03,3.06c0,0.87 0.043,1.513 0.128,1.927c0.082,0.41 0.24,0.857 0.469,1.33l-2.593,0c-0.069,-0.174 -0.154,-0.433 -0.253,-0.775c-0.043,-0.154 -0.076,-0.259 -0.095,-0.309c-0.446,0.437 -0.926,0.762 -1.435,0.978c-0.512,0.217 -1.054,0.328 -1.632,0.328c-1.021,0 -1.825,-0.276 -2.413,-0.831c-0.588,-0.552 -0.883,-1.254 -0.883,-2.101c0,-0.558 0.135,-1.057 0.401,-1.497c0.269,-0.44 0.643,-0.775 1.126,-1.008c0.479,-0.233 1.179,-0.437 2.085,-0.611c1.228,-0.23 2.075,-0.443 2.547,-0.643l0,-0.263c0,-0.506 -0.125,-0.863 -0.374,-1.077c-0.249,-0.217 -0.716,-0.325 -1.408,-0.325c-0.466,0 -0.831,0.095 -1.093,0.279c-0.259,0.184 -0.469,0.506 -0.634,0.965"/><path d="M1103.137,59.576l-2.62,0l0,-9.911l2.433,0l0,1.408c0.417,-0.663 0.791,-1.103 1.126,-1.313c0.332,-0.213 0.709,-0.318 1.133,-0.318c0.597,0 1.175,0.164 1.727,0.496l-0.811,2.285c-0.443,-0.286 -0.854,-0.43 -1.234,-0.43c-0.368,0 -0.676,0.102 -0.932,0.302c-0.256,0.204 -0.456,0.568 -0.601,1.1c-0.148,0.529 -0.22,1.635 -0.22,3.322l0,3.06Z"/><rect x="980.627" y="68.828" width="2.623" height="13.68"/><path d="M985.872,68.866l2.623,0l0,1.878c0,0.758 -0.066,1.356 -0.197,1.796c-0.131,0.437 -0.378,0.831 -0.742,1.179c-0.364,0.348 -0.824,0.624 -1.385,0.821l-0.512,-1.08c0.529,-0.174 0.903,-0.414 1.129,-0.722c0.223,-0.302 0.341,-0.719 0.351,-1.247l-1.267,0l0,-2.623Z"/><path d="M991.247,68.829l2.761,0l0,7.409c0,1.175 0.036,1.94 0.105,2.285c0.118,0.561 0.397,1.011 0.844,1.349c0.443,0.338 1.054,0.509 1.825,0.509c0.785,0 1.376,-0.158 1.773,-0.479c0.397,-0.322 0.637,-0.716 0.719,-1.182c0.079,-0.466 0.121,-1.241 0.121,-2.324l0,-7.567l2.761,0l0,7.186c0,1.641 -0.072,2.804 -0.223,3.48c-0.148,0.68 -0.423,1.251 -0.824,1.717c-0.404,0.469 -0.939,0.84 -1.612,1.116c-0.673,0.276 -1.55,0.414 -2.633,0.414c-1.307,0 -2.298,-0.148 -2.971,-0.453c-0.676,-0.299 -1.208,-0.693 -1.602,-1.175c-0.391,-0.479 -0.647,-0.985 -0.771,-1.517c-0.181,-0.781 -0.272,-1.94 -0.272,-3.47l0,-7.298Z"/><path d="M1014.065,82.51l-2.623,0l0,-5.059c0,-1.07 -0.056,-1.763 -0.167,-2.075c-0.112,-0.315 -0.295,-0.558 -0.545,-0.735c-0.253,-0.171 -0.558,-0.259 -0.913,-0.259c-0.453,0 -0.86,0.125 -1.221,0.371c-0.361,0.253 -0.611,0.581 -0.742,0.995c-0.135,0.407 -0.2,1.169 -0.2,2.275l0,4.488l-2.623,0l0,-9.911l2.436,0l0,1.458c0.863,-1.119 1.953,-1.681 3.266,-1.681c0.578,0 1.106,0.102 1.586,0.312c0.479,0.207 0.844,0.476 1.087,0.798c0.246,0.325 0.417,0.693 0.515,1.103c0.095,0.41 0.144,0.998 0.144,1.763l0,6.159Z"/><path d="M1016.722,72.6l2.623,0l0,9.911l-2.623,0l0,-9.911Zm0,-3.772l2.623,0l0,2.426l-2.623,0l0,-2.426Z"/><path d="M1024.114,77.553c0,0.985 0.233,1.737 0.703,2.262c0.466,0.522 1.041,0.781 1.724,0.781c0.683,0 1.261,-0.259 1.72,-0.781c0.466,-0.525 0.699,-1.284 0.699,-2.278c0,-0.972 -0.233,-1.717 -0.699,-2.239c-0.46,-0.522 -1.037,-0.785 -1.72,-0.785c-0.683,0 -1.257,0.263 -1.724,0.785c-0.469,0.522 -0.703,1.274 -0.703,2.255m-2.689,-0.138c0,-0.873 0.217,-1.714 0.647,-2.528c0.43,-0.817 1.037,-1.441 1.822,-1.868c0.788,-0.43 1.668,-0.643 2.639,-0.643c1.497,0 2.725,0.486 3.683,1.458c0.959,0.975 1.438,2.206 1.438,3.693c0,1.5 -0.483,2.741 -1.451,3.729c-0.968,0.985 -2.186,1.477 -3.654,1.477c-0.906,0 -1.776,-0.207 -2.6,-0.617c-0.824,-0.41 -1.448,-1.011 -1.878,-1.806c-0.43,-0.791 -0.647,-1.756 -0.647,-2.895"/><path d="M1042.722,82.51l-2.623,0l0,-5.059c0,-1.07 -0.053,-1.763 -0.167,-2.075c-0.112,-0.315 -0.292,-0.558 -0.545,-0.735c-0.253,-0.171 -0.555,-0.259 -0.909,-0.259c-0.456,0 -0.863,0.125 -1.225,0.371c-0.361,0.253 -0.607,0.581 -0.739,0.995c-0.135,0.407 -0.204,1.169 -0.204,2.275l0,4.488l-2.623,0l0,-9.911l2.436,0l0,1.458c0.867,-1.119 1.953,-1.681 3.27,-1.681c0.578,0 1.106,0.102 1.586,0.312c0.479,0.207 0.84,0.476 1.087,0.798c0.243,0.325 0.417,0.693 0.512,1.103c0.098,0.41 0.144,0.998 0.144,1.763l0,6.159Z"/><path d="M1050.71,82.51l0,-13.68l10.144,0l0,2.314l-7.383,0l0,3.033l6.868,0l0,2.305l-6.868,0l0,3.723l7.646,0l0,2.305l-10.407,0Z"/><path d="M1069.963,82.51l0,-1.484c-0.361,0.529 -0.837,0.945 -1.421,1.251c-0.591,0.305 -1.211,0.456 -1.865,0.456c-0.663,0 -1.261,-0.148 -1.792,-0.44c-0.525,-0.289 -0.909,-0.699 -1.146,-1.231c-0.236,-0.525 -0.355,-1.257 -0.355,-2.193l0,-6.27l2.623,0l0,4.553c0,1.395 0.046,2.249 0.144,2.564c0.095,0.315 0.272,0.561 0.525,0.745c0.256,0.184 0.581,0.276 0.972,0.276c0.446,0 0.847,-0.121 1.202,-0.371c0.355,-0.243 0.597,-0.548 0.729,-0.913c0.131,-0.364 0.197,-1.254 0.197,-2.672l0,-4.182l2.62,0l0,9.911l-2.433,0Z"/><path d="M1077.623,82.51l-2.62,0l0,-9.911l2.433,0l0,1.408c0.417,-0.663 0.791,-1.103 1.126,-1.313c0.332,-0.213 0.709,-0.318 1.133,-0.318c0.597,0 1.175,0.164 1.727,0.496l-0.811,2.285c-0.443,-0.286 -0.854,-0.43 -1.234,-0.43c-0.364,0 -0.676,0.102 -0.932,0.302c-0.253,0.204 -0.456,0.571 -0.601,1.1c-0.148,0.529 -0.22,1.635 -0.22,3.322l0,3.06Z"/><path d="M1084.633,77.553c0,0.985 0.233,1.737 0.699,2.262c0.466,0.522 1.044,0.781 1.727,0.781c0.683,0 1.257,-0.259 1.72,-0.781c0.463,-0.525 0.696,-1.284 0.696,-2.278c0,-0.972 -0.233,-1.717 -0.696,-2.239c-0.463,-0.522 -1.037,-0.785 -1.72,-0.785c-0.683,0 -1.261,0.263 -1.727,0.785c-0.466,0.522 -0.699,1.274 -0.699,2.255m-2.689,-0.138c0,-0.873 0.213,-1.714 0.643,-2.528c0.43,-0.817 1.037,-1.441 1.825,-1.868c0.785,-0.43 1.664,-0.643 2.636,-0.643c1.5,0 2.728,0.486 3.687,1.458c0.959,0.975 1.438,2.206 1.438,3.693c0,1.5 -0.486,2.741 -1.454,3.729c-0.965,0.985 -2.183,1.477 -3.651,1.477c-0.909,0 -1.776,-0.207 -2.6,-0.617c-0.827,-0.41 -1.451,-1.011 -1.881,-1.806c-0.43,-0.791 -0.643,-1.756 -0.643,-2.895"/><path d="M1096.746,77.387c0,1.113 0.22,1.934 0.66,2.469c0.443,0.532 0.982,0.794 1.618,0.794c0.607,0 1.113,-0.243 1.52,-0.732c0.404,-0.486 0.607,-1.287 0.607,-2.403c0,-1.037 -0.21,-1.809 -0.627,-2.314c-0.417,-0.502 -0.932,-0.755 -1.55,-0.755c-0.64,0 -1.172,0.246 -1.595,0.742c-0.423,0.496 -0.634,1.228 -0.634,2.2m-2.593,-4.79l2.442,0l0,1.458c0.318,-0.499 0.748,-0.903 1.29,-1.215c0.542,-0.309 1.139,-0.466 1.799,-0.466c1.152,0 2.127,0.453 2.932,1.356c0.801,0.9 1.205,2.157 1.205,3.769c0,1.655 -0.404,2.941 -1.215,3.857c-0.808,0.919 -1.789,1.379 -2.941,1.379c-0.545,0 -1.041,-0.112 -1.487,-0.328c-0.443,-0.217 -0.913,-0.591 -1.405,-1.123l0,4.997l-2.62,0l0,-13.683Z"/><path d="M1108.438,71.386l1.287,-2.79l2.941,0l-2.567,2.79l-1.661,0Zm3.352,5.318c-0.02,-0.758 -0.217,-1.333 -0.591,-1.73c-0.371,-0.394 -0.827,-0.594 -1.362,-0.594c-0.571,0 -1.044,0.21 -1.418,0.627c-0.374,0.417 -0.555,0.982 -0.548,1.697l3.92,0Zm-0.151,2.653l2.613,0.437c-0.335,0.959 -0.867,1.687 -1.589,2.19c-0.726,0.499 -1.632,0.752 -2.721,0.752c-1.724,0 -3.001,-0.565 -3.828,-1.687c-0.65,-0.903 -0.978,-2.042 -0.978,-3.421c0,-1.641 0.427,-2.928 1.287,-3.854c0.857,-0.932 1.943,-1.398 3.257,-1.398c1.474,0 2.639,0.489 3.49,1.461c0.854,0.975 1.261,2.465 1.221,4.475l-6.569,0c0.02,0.778 0.23,1.385 0.637,1.815c0.404,0.433 0.906,0.65 1.51,0.65c0.41,0 0.758,-0.112 1.037,-0.338c0.279,-0.223 0.492,-0.584 0.634,-1.08"/><path d="M1122.417,76.705c-0.02,-0.758 -0.213,-1.336 -0.588,-1.73c-0.371,-0.394 -0.827,-0.594 -1.362,-0.594c-0.571,0 -1.044,0.21 -1.418,0.627c-0.374,0.417 -0.558,0.982 -0.552,1.697l3.92,0Zm-0.148,2.649l2.61,0.44c-0.335,0.959 -0.863,1.687 -1.589,2.19c-0.726,0.499 -1.632,0.748 -2.721,0.748c-1.724,0 -2.997,-0.561 -3.825,-1.687c-0.653,-0.903 -0.982,-2.039 -0.982,-3.417c0,-1.641 0.43,-2.928 1.29,-3.857c0.857,-0.929 1.943,-1.395 3.257,-1.395c1.474,0 2.636,0.489 3.49,1.461c0.85,0.975 1.261,2.465 1.221,4.475l-6.569,0c0.02,0.778 0.23,1.382 0.637,1.815c0.404,0.433 0.906,0.647 1.51,0.647c0.41,0 0.755,-0.112 1.034,-0.335c0.279,-0.223 0.492,-0.584 0.637,-1.083"/><path d="M1136.172,82.51l-2.62,0l0,-5.059c0,-1.07 -0.056,-1.763 -0.171,-2.075c-0.112,-0.315 -0.292,-0.558 -0.545,-0.735c-0.253,-0.171 -0.555,-0.259 -0.909,-0.259c-0.453,0 -0.863,0.125 -1.225,0.371c-0.361,0.253 -0.607,0.581 -0.739,0.995c-0.135,0.407 -0.204,1.169 -0.204,2.275l0,4.488l-2.623,0l0,-9.911l2.439,0l0,1.458c0.863,-1.119 1.95,-1.681 3.263,-1.681c0.581,0 1.11,0.102 1.589,0.312c0.479,0.207 0.84,0.476 1.087,0.798c0.243,0.325 0.417,0.693 0.512,1.103c0.098,0.41 0.144,0.998 0.144,1.763l0,6.159Z"/><path d="M1147.847,82.51l-2.623,0l0,-5.059c0,-1.07 -0.056,-1.763 -0.167,-2.075c-0.112,-0.315 -0.295,-0.558 -0.545,-0.735c-0.253,-0.171 -0.558,-0.259 -0.913,-0.259c-0.453,0 -0.86,0.125 -1.221,0.371c-0.361,0.253 -0.607,0.581 -0.742,0.995c-0.135,0.407 -0.2,1.169 -0.2,2.275l0,4.488l-2.623,0l0,-9.911l2.436,0l0,1.458c0.863,-1.119 1.953,-1.681 3.266,-1.681c0.578,0 1.106,0.102 1.586,0.312c0.479,0.207 0.844,0.476 1.087,0.798c0.246,0.325 0.417,0.693 0.515,1.103c0.095,0.41 0.144,0.998 0.144,1.763l0,6.159Z"/><path d="M1156.396,76.705c-0.02,-0.758 -0.217,-1.336 -0.588,-1.73c-0.374,-0.394 -0.831,-0.594 -1.362,-0.594c-0.575,0 -1.047,0.21 -1.421,0.627c-0.371,0.417 -0.555,0.982 -0.548,1.697l3.92,0Zm-0.151,2.649l2.613,0.44c-0.335,0.959 -0.863,1.687 -1.589,2.19c-0.726,0.499 -1.632,0.748 -2.721,0.748c-1.724,0 -2.997,-0.561 -3.825,-1.687c-0.653,-0.903 -0.982,-2.039 -0.982,-3.417c0,-1.641 0.43,-2.928 1.287,-3.857c0.86,-0.929 1.947,-1.395 3.26,-1.395c1.474,0 2.636,0.489 3.49,1.461c0.85,0.975 1.257,2.465 1.221,4.475l-6.569,0c0.016,0.778 0.23,1.382 0.634,1.815c0.404,0.433 0.909,0.647 1.51,0.647c0.41,0 0.758,-0.112 1.037,-0.335c0.279,-0.223 0.492,-0.584 0.634,-1.083"/><path d="M448.869,197.74l-0.033,4.652l-10.83,0l0,4.967l10.003,0l0,4.652l-10.003,0l0,8.056l-5.83,0l0,-22.327l16.693,0Z"/><path d="M462.546,202.614l0,5.193c-3.152,-0.322 -5.256,1.08 -5.541,3.47l0,8.791l-5.669,0l0,-17.232l5.669,0l0,2.866c1.179,-1.973 3.122,-3.089 5.541,-3.089"/><path d="M474.735,214.239l0,-1.497l-3.375,0c-1.595,0 -2.39,0.575 -2.39,1.783c0,1.182 0.86,1.943 2.324,1.943c1.687,0 3.089,-0.922 3.44,-2.229m5.574,-5.381l0,11.211l-5.574,0l0,-1.943c-1.113,1.431 -2.866,2.196 -5.19,2.196c-3.696,0 -5.893,-2.229 -5.893,-5.381c0,-3.283 2.324,-5.161 6.592,-5.226l4.491,0l0,-0.19c0,-1.622 -1.113,-2.58 -3.28,-2.58c-1.435,0 -3.312,0.479 -5.161,1.369l-1.563,-3.821c2.708,-1.208 5.193,-1.878 8.03,-1.878c4.744,0 7.514,2.291 7.547,6.244"/><path d="M501.883,209.206l0,10.863l-5.637,0l0,-9.238c0,-1.943 -1.146,-3.155 -2.932,-3.155c-1.911,0.036 -3.152,1.339 -3.375,3.283l0,9.11l-5.669,0l0,-17.232l5.669,0l0,2.8c1.208,-1.973 3.184,-3.024 5.702,-3.024c3.756,0 6.241,2.547 6.241,6.592"/><path d="M513.782,207.327c-2.039,0 -3.44,1.687 -3.44,4.173c0,2.518 1.402,4.173 3.44,4.173c1.497,0 2.676,-0.604 3.375,-1.943l4.173,2.39c-1.369,2.643 -4.173,4.14 -7.836,4.14c-5.318,0 -8.854,-3.47 -8.854,-8.726c0,-5.351 3.568,-8.887 8.92,-8.887c3.47,0 6.211,1.497 7.708,4.077l-4.11,2.387c-0.765,-1.113 -1.911,-1.783 -3.375,-1.783"/><path d="M534.795,209.94c0,-1.976 -1.274,-3.316 -3.184,-3.316c-1.848,0 -3.06,1.339 -3.44,3.316l6.625,0Zm5.476,3.027l-11.976,0c0.542,1.943 1.976,3.024 3.916,3.024c1.467,0 2.902,-0.604 4.048,-1.75l2.961,2.961c-1.75,1.976 -4.33,3.056 -7.514,3.056c-5.64,0 -9.11,-3.47 -9.11,-8.726c0,-5.351 3.598,-8.887 8.982,-8.887c6.017,0 9.077,4.044 8.693,10.321"/><rect x="549.131" y="209.557" width="12.994" height="3.631"/><path d="M576.426,197.74l4.238,16.148l4.202,-16.148l5.699,0l4.238,16.148l4.205,-16.148l5.988,0l-7.357,22.327l-6.021,0l-4.012,-15.065l-4.143,15.065l-5.988,0l-7.324,-22.327l6.274,0Z"/><path d="M615.958,214.239l0,-1.497l-3.375,0c-1.595,0 -2.39,0.575 -2.39,1.783c0,1.182 0.857,1.943 2.324,1.943c1.687,0 3.089,-0.922 3.44,-2.229m5.574,-5.381l0,11.211l-5.574,0l0,-1.943c-1.116,1.431 -2.869,2.196 -5.193,2.196c-3.693,0 -5.889,-2.229 -5.889,-5.381c0,-3.283 2.324,-5.161 6.592,-5.226l4.491,0l0,-0.19c0,-1.622 -1.116,-2.58 -3.28,-2.58c-1.438,0 -3.316,0.479 -5.164,1.369l-1.559,-3.821c2.708,-1.208 5.193,-1.878 8.027,-1.878c4.747,0 7.518,2.291 7.551,6.244"/><rect x="625.576" y="196.433" width="5.669" height="23.637"/><rect x="635.618" y="196.433" width="5.669" height="23.637"/><path d="M650.111,211.533c0,2.547 1.497,4.268 3.693,4.268c2.232,0 3.726,-1.72 3.726,-4.268c0,-2.58 -1.494,-4.301 -3.726,-4.301c-2.196,0 -3.693,1.72 -3.693,4.301m13.122,-0.095c0,5.318 -3.759,8.821 -9.428,8.821c-5.669,0 -9.396,-3.503 -9.396,-8.821c0,-5.289 3.726,-8.791 9.396,-8.791c5.669,0 9.428,3.503 9.428,8.791"/><path d="M683.88,209.206l0,10.863l-5.64,0l0,-9.238c0,-1.943 -1.146,-3.155 -2.928,-3.155c-1.911,0.036 -3.152,1.339 -3.375,3.283l0,9.11l-5.673,0l0,-17.232l5.673,0l0,2.8c1.208,-1.973 3.184,-3.024 5.699,-3.024c3.759,0 6.244,2.547 6.244,6.592"/><path d="M693.469,220.069l-5.637,0l0,-17.232l5.637,0l0,17.232Zm0.19,-22.136c0,1.783 -1.244,3.024 -2.994,3.024c-1.753,0 -2.994,-1.241 -2.994,-3.024c0,-1.786 1.241,-3.027 2.994,-3.027c1.75,0 2.994,1.241 2.994,3.027"/><path d="M708.643,209.94c0,-1.976 -1.274,-3.316 -3.184,-3.316c-1.848,0 -3.06,1.339 -3.44,3.316l6.625,0Zm5.476,3.027l-11.976,0c0.542,1.943 1.976,3.024 3.916,3.024c1.467,0 2.902,-0.604 4.048,-1.75l2.961,2.961c-1.75,1.976 -4.33,3.056 -7.514,3.056c-5.64,0 -9.11,-3.47 -9.11,-8.726c0,-5.351 3.598,-8.887 8.982,-8.887c6.017,0 9.077,4.044 8.693,10.321"/><rect x="722.978" y="209.557" width="12.994" height="3.631"/><path d="M750.274,197.74l5.574,16.148l5.607,-16.148l5.988,0l-8.729,22.327l-6.05,0l-8.663,-22.327l6.274,0Z"/><rect x="769.677" y="196.433" width="5.669" height="23.637"/><path d="M789.586,214.239l0,-1.497l-3.375,0c-1.595,0 -2.39,0.575 -2.39,1.783c0,1.182 0.857,1.943 2.324,1.943c1.687,0 3.089,-0.922 3.44,-2.229m5.574,-5.381l0,11.211l-5.574,0l0,-1.943c-1.116,1.431 -2.869,2.196 -5.193,2.196c-3.693,0 -5.889,-2.229 -5.889,-5.381c0,-3.283 2.324,-5.161 6.592,-5.226l4.491,0l0,-0.19c0,-1.622 -1.116,-2.58 -3.28,-2.58c-1.438,0 -3.316,0.479 -5.164,1.369l-1.559,-3.821c2.708,-1.208 5.193,-1.878 8.027,-1.878c4.747,0 7.518,2.291 7.551,6.244"/><path d="M808.937,214.239l0,-1.497l-3.375,0c-1.595,0 -2.39,0.575 -2.39,1.783c0,1.182 0.86,1.943 2.324,1.943c1.687,0 3.089,-0.922 3.44,-2.229m5.574,-5.381l0,11.211l-5.574,0l0,-1.943c-1.113,1.431 -2.866,2.196 -5.19,2.196c-3.696,0 -5.893,-2.229 -5.893,-5.381c0,-3.283 2.324,-5.161 6.592,-5.226l4.491,0l0,-0.19c0,-1.622 -1.113,-2.58 -3.28,-2.58c-1.435,0 -3.312,0.479 -5.161,1.369l-1.563,-3.821c2.708,-1.208 5.193,-1.878 8.03,-1.878c4.744,0 7.514,2.291 7.547,6.244"/><path d="M836.084,209.206l0,10.863l-5.64,0l0,-9.238c0,-1.943 -1.146,-3.155 -2.928,-3.155c-1.911,0.036 -3.152,1.339 -3.378,3.283l0,9.11l-5.669,0l0,-17.232l5.669,0l0,2.8c1.211,-1.973 3.188,-3.024 5.702,-3.024c3.759,0 6.244,2.547 6.244,6.592"/><path d="M852.021,211.533c0,-2.58 -1.497,-4.301 -3.696,-4.301c-2.229,0 -3.726,1.753 -3.726,4.301c0,2.547 1.497,4.301 3.726,4.301c2.2,0 3.696,-1.753 3.696,-4.301m5.669,-15.098l0,23.633l-5.669,0l0,-2.229c-1.179,1.592 -2.932,2.452 -5.098,2.452c-4.839,0 -8.023,-3.568 -8.023,-8.92c0,-5.253 3.152,-8.726 7.899,-8.726c2.229,0 4.012,0.89 5.223,2.452l0,-8.663l5.669,0Z"/><path d="M873.076,209.94c0,-1.976 -1.274,-3.316 -3.184,-3.316c-1.848,0 -3.06,1.339 -3.44,3.316l6.625,0Zm5.476,3.027l-11.976,0c0.542,1.943 1.976,3.024 3.916,3.024c1.467,0 2.902,-0.604 4.048,-1.75l2.961,2.961c-1.75,1.976 -4.33,3.056 -7.514,3.056c-5.64,0 -9.11,-3.47 -9.11,-8.726c0,-5.351 3.598,-8.887 8.982,-8.887c6.017,0 9.077,4.044 8.693,10.321"/><path d="M892.754,202.614l0,5.193c-3.152,-0.322 -5.256,1.08 -5.541,3.47l0,8.791l-5.669,0l0,-17.232l5.669,0l0,2.866c1.179,-1.973 3.122,-3.089 5.541,-3.089"/><path d="M906.333,209.94c0,-1.976 -1.274,-3.316 -3.184,-3.316c-1.848,0 -3.056,1.339 -3.44,3.316l6.625,0Zm5.479,3.027l-11.976,0c0.542,1.943 1.973,3.024 3.916,3.024c1.464,0 2.899,-0.604 4.048,-1.75l2.961,2.961c-1.753,1.976 -4.333,3.056 -7.518,3.056c-5.637,0 -9.11,-3.47 -9.11,-8.726c0,-5.351 3.598,-8.887 8.982,-8.887c6.021,0 9.077,4.044 8.696,10.321"/><path d="M932.413,209.206l0,10.863l-5.637,0l0,-9.238c0,-1.943 -1.146,-3.155 -2.932,-3.155c-1.911,0.036 -3.152,1.339 -3.375,3.283l0,9.11l-5.669,0l0,-17.232l5.669,0l0,2.8c1.208,-1.973 3.184,-3.024 5.702,-3.024c3.756,0 6.241,2.547 6.241,6.592"/><rect x="434.481" y="278.557" width="760.06" height="1.592"/><path d="M435.489,336.427c0,-17.918 13.758,-30.744 32.27,-30.744c10.279,0 18.857,3.736 24.461,10.531l-8.831,8.155c-3.992,-4.586 -9.002,-6.963 -14.947,-6.963c-11.126,0 -19.024,7.813 -19.024,19.021c0,3.226 0.654,6.171 1.851,8.729c2.962,6.331 9.249,10.295 17.173,10.295c5.945,0 10.955,-2.377 14.947,-7.048l8.831,8.151c-5.604,6.881 -14.182,10.617 -24.543,10.617c-18.43,0 -32.188,-12.823 -32.188,-30.744"/><path d="M528.918,319.783l0,12.229c-1.103,-0.085 -1.953,-0.171 -2.971,-0.171c-7.304,0 -12.147,3.992 -12.147,12.741l0,21.572l-13.246,0l0,-45.691l12.652,0l0,6.027c3.227,-4.415 8.663,-6.707 15.712,-6.707"/><path d="M546.166,339.316l22.507,0c-0.936,-5.775 -5.266,-9.51 -11.211,-9.51c-6.031,0 -10.361,3.651 -11.296,9.51m34.736,7.728l-34.565,0c1.274,5.689 6.116,9.172 13.079,9.172c4.839,0 8.322,-1.444 11.464,-4.415l7.052,7.642c-4.248,4.842 -10.617,7.39 -18.857,7.39c-15.794,0 -26.069,-9.937 -26.069,-23.525c0,-13.673 10.443,-23.525 24.372,-23.525c13.42,0 23.781,9.002 23.781,23.696c0,1.018 -0.171,2.462 -0.256,3.565"/><path d="M615.9,351.715l0,-4.672l-9.087,0c-6.201,0 -8.155,2.291 -8.155,5.351c0,3.312 2.804,5.522 7.475,5.522c4.415,0 8.237,-2.039 9.767,-6.201m13.246,-11.634l0,26.072l-12.399,0l0,-5.689c-2.459,4.159 -7.219,6.369 -13.926,6.369c-10.702,0 -17.071,-5.945 -17.071,-13.844c0,-8.069 5.689,-13.673 19.618,-13.673l10.531,0c0,-5.689 -3.398,-9.002 -10.531,-9.002c-4.842,0 -9.852,1.612 -13.164,4.245l-4.757,-9.254c5.013,-3.568 12.399,-5.522 19.704,-5.522c13.929,0 21.995,6.454 21.995,20.298"/><path d="M670.6,363.944c-2.718,1.953 -6.707,2.889 -10.784,2.889c-10.787,0 -17.071,-5.522 -17.071,-16.391l0,-18.768l-7.048,0l0,-10.193l7.048,0l0,-11.126l13.246,0l0,11.126l11.382,0l0,10.193l-11.382,0l0,18.597c0,3.907 2.124,6.027 5.692,6.027c1.953,0 3.907,-0.591 5.348,-1.697l3.568,9.343Z"/><path d="M678.082,320.462l13.246,0l0,45.691l-13.246,0l0,-45.691Zm-1.615,-13.758c0,-4.163 3.312,-7.39 8.237,-7.39c4.924,0 8.237,3.06 8.237,7.134c0,4.419 -3.312,7.646 -8.237,7.646c-4.924,0 -8.237,-3.227 -8.237,-7.39"/><path d="M748.999,320.462l-19.28,45.691l-13.673,0l-19.195,-45.691l13.676,0l12.652,31.085l13.082,-31.085l12.737,0Z"/><path d="M768.878,310.611c0,2.206 -0.341,3.821 -2.206,8.493l-4.928,12.229l-8.407,0l3.654,-13.417c-2.721,-1.192 -4.504,-3.736 -4.504,-7.304c0,-4.928 3.568,-8.155 8.24,-8.155c4.754,0 8.151,3.312 8.151,8.155"/><path d="M778.307,339.994l0,-33.291l13.758,0l0,32.783c0,11.293 4.928,15.968 13.25,15.968c8.407,0 13.246,-4.675 13.246,-15.968l0,-32.783l13.591,0l0,33.291c0,17.498 -10.023,27.175 -26.923,27.175c-16.9,0 -26.923,-9.678 -26.923,-27.175"/><path d="M881.166,343.308c0,-7.899 -5.013,-12.655 -11.634,-12.655c-6.625,0 -11.638,4.757 -11.638,12.655c0,7.899 5.013,12.655 11.638,12.655c6.622,0 11.634,-4.757 11.634,-12.655m13.417,0c0,14.353 -9.934,23.525 -22.76,23.525c-5.689,0 -10.361,-1.783 -13.758,-5.522l0,21.319l-13.246,0l0,-62.167l12.652,0l0,5.262c3.312,-3.989 8.237,-5.942 14.353,-5.942c12.826,0 22.76,9.172 22.76,23.525"/></g></svg>